<svg width="60" height="54" viewBox="0 0 60 54" fill="none" xmlns="http://www.w3.org/2000/svg">
<path d="M18 35.5533H42V33.9238C42 31.7017 40.9 29.9369 38.7 28.6293C36.5 27.3218 33.6 26.667 30 26.665C26.4 26.663 23.5 27.3178 21.3 28.6293C19.1 29.9408 18 31.7057 18 33.9238V35.5533ZM30 23.7022C31.65 23.7022 33.063 23.1225 34.239 21.9631C35.415 20.8036 36.002 19.4082 36 17.7767C35.998 16.1452 35.411 14.7507 34.239 13.5932C33.067 12.4358 31.654 11.8551 30 11.8511C28.346 11.8472 26.934 12.4279 25.764 13.5932C24.594 14.7586 24.006 16.1531 24 17.7767C23.994 19.4003 24.582 20.7957 25.764 21.9631C26.946 23.1304 28.358 23.7101 30 23.7022ZM18 53.33V47.4044H6C4.35 47.4044 2.938 46.8247 1.764 45.6653C0.59 44.5059 0.002 43.1104 0 41.4789V5.92556C0 4.29603 0.588 2.90155 1.764 1.74211C2.94 0.58268 4.352 0.00197519 6 0H54C55.65 0 57.063 0.580705 58.239 1.74211C59.415 2.90352 60.002 4.298 60 5.92556V41.4789C60 43.1084 59.413 44.5039 58.239 45.6653C57.065 46.8267 55.652 47.4064 54 47.4044H42V53.33H18Z" fill="#FDFCF9"/>
</svg>
