<svg width="61" height="54" viewBox="0 0 61 54" fill="none" xmlns="http://www.w3.org/2000/svg">
<path d="M19.4733 34.36H41.5267V33.8067C41.5267 31.8622 40.5489 30.3567 38.5933 29.29C36.6422 28.2233 33.9444 27.69 30.5 27.69C27.0556 27.69 24.3567 28.2233 22.4033 29.29C20.45 30.3567 19.4733 31.8622 19.4733 33.8067V34.36ZM30.5 22.3067C31.9067 22.3067 33.0911 21.8256 34.0533 20.8633C35.0178 19.8989 35.5 18.7133 35.5 17.3067C35.5 15.9 35.0178 14.7156 34.0533 13.7533C33.0889 12.7911 31.9044 12.3089 30.5 12.3067C29.0956 12.3044 27.9111 12.7867 26.9467 13.7533C25.9822 14.72 25.5 15.9044 25.5 17.3067C25.5 18.7089 25.9822 19.8944 26.9467 20.8633C27.9089 21.8256 29.0933 22.3067 30.5 22.3067ZM20.5 53.3333V46.6667H5.88667C4.35111 46.6667 3.07 46.1533 2.04333 45.1267C1.01667 44.1 0.502222 42.8178 0.5 41.28V5.38667C0.5 3.85111 1.01444 2.57 2.04333 1.54333C3.07222 0.516666 4.35222 0.00222222 5.88333 0H55.1167C56.65 0 57.93 0.514444 58.9567 1.54333C59.9833 2.57222 60.4978 3.85333 60.5 5.38667V41.2833C60.5 42.8167 59.9856 44.0978 58.9567 45.1267C57.9278 46.1556 56.6478 46.6689 55.1167 46.6667H40.5V53.3333H20.5ZM5.88667 43.3333H55.1167C55.6278 43.3333 56.0978 43.12 56.5267 42.6933C56.9556 42.2667 57.1689 41.7956 57.1667 41.28V5.38667C57.1667 4.87333 56.9533 4.40222 56.5267 3.97333C56.1 3.54444 55.63 3.33111 55.1167 3.33333H5.88333C5.37222 3.33333 4.90222 3.54667 4.47333 3.97333C4.04444 4.4 3.83111 4.87111 3.83333 5.38667V41.2833C3.83333 41.7944 4.04667 42.2644 4.47333 42.6933C4.9 43.1222 5.37 43.3356 5.88333 43.3333" fill="#FDFCF9"/>
</svg>
