<svg width="18" height="23" viewBox="0 0 18 23" fill="none" xmlns="http://www.w3.org/2000/svg">
<path d="M9.59305 22.0048L9.58205 22.0068L9.51105 22.0418L9.49105 22.0458L9.47705 22.0418L9.40605 22.0068C9.39538 22.0034 9.38738 22.0051 9.38205 22.0118L9.37805 22.0218L9.36105 22.4498L9.36605 22.4698L9.37605 22.4828L9.48005 22.5568L9.49505 22.5608L9.50705 22.5568L9.61105 22.4828L9.62305 22.4668L9.62705 22.4498L9.61005 22.0228C9.60738 22.0121 9.60172 22.0061 9.59305 22.0048ZM9.85805 21.8918L9.84505 21.8938L9.66005 21.9868L9.65005 21.9968L9.64705 22.0078L9.66505 22.4378L9.67005 22.4498L9.67805 22.4568L9.87905 22.5498C9.89172 22.5531 9.90138 22.5504 9.90805 22.5418L9.91205 22.5278L9.87805 21.9138C9.87472 21.9018 9.86805 21.8944 9.85805 21.8918ZM9.14305 21.8938C9.13864 21.8911 9.13338 21.8902 9.12835 21.8913C9.12332 21.8925 9.11891 21.8955 9.11605 21.8998L9.11005 21.9138L9.07605 22.5278C9.07672 22.5398 9.08238 22.5478 9.09305 22.5518L9.10805 22.5498L9.30905 22.4568L9.31905 22.4488L9.32305 22.4378L9.34005 22.0078L9.33705 21.9958L9.32705 21.9858L9.14305 21.8938Z" fill="#656565"/>
<path d="M9 0.890869C10.5524 0.890812 12.0444 1.49244 13.1625 2.56933C14.2806 3.64623 14.9378 5.11458 14.996 6.66587L15 6.89087H16C16.5046 6.89071 16.9906 7.08128 17.3605 7.42437C17.7305 7.76746 17.9572 8.23771 17.995 8.74087L18 8.89087V18.8909C18.0002 19.3954 17.8096 19.8814 17.4665 20.2514C17.1234 20.6214 16.6532 20.848 16.15 20.8859L16 20.8909H2C1.49542 20.891 1.00943 20.7005 0.639452 20.3574C0.269471 20.0143 0.0428434 19.544 0.00500021 19.0409L1.00268e-07 18.8909V8.89087C-0.000159579 8.38629 0.190406 7.9003 0.533497 7.53032C0.876588 7.16034 1.34684 6.93371 1.85 6.89587L2 6.89087H3C3 5.29957 3.63214 3.77345 4.75736 2.64823C5.88258 1.52301 7.4087 0.890869 9 0.890869ZM16 8.89087H2V18.8909H16V8.89087ZM9 10.8909C9.42659 10.891 9.84196 11.0275 10.1854 11.2805C10.5289 11.5335 10.7825 11.8897 10.9092 12.297C11.0358 12.7044 11.0289 13.1416 10.8895 13.5447C10.75 13.9479 10.4853 14.2959 10.134 14.5379L10 14.6229V15.8909C9.99972 16.1457 9.90212 16.3909 9.72715 16.5762C9.55218 16.7616 9.31305 16.8731 9.05861 16.888C8.80416 16.903 8.55362 16.8202 8.35817 16.6566C8.16271 16.493 8.0371 16.261 8.007 16.0079L8 15.8909V14.6229C7.61874 14.4027 7.32077 14.0629 7.15231 13.6562C6.98384 13.2494 6.95429 12.7985 7.06824 12.3732C7.18219 11.948 7.43326 11.5722 7.78253 11.3042C8.1318 11.0362 8.55975 10.8909 9 10.8909ZM9 2.89087C7.93913 2.89087 6.92172 3.3123 6.17157 4.06244C5.42143 4.81259 5 5.83 5 6.89087H13C13 5.83 12.5786 4.81259 11.8284 4.06244C11.0783 3.3123 10.0609 2.89087 9 2.89087Z" fill="#656565"/>
</svg>
